<svg xmlns="http://www.w3.org/2000/svg" width="90" height="90" viewBox="0 0 90 90" fill="none">
<path d="M19 24.5682C19 24.5682 34.5833 20.3409 43.7917 14C53 20.3409 70 24.5682 70 24.5682V38.7897C70 45.2473 69.2495 51.7511 66.4345 57.5628C62.5557 65.5707 55.4098 76 44.5 76C33.5902 76 26.4443 65.5707 22.5655 57.5628C19.7505 51.7511 19 45.2473 19 38.7897V24.5682Z" stroke="black" stroke-width="2"/>
<path d="M28.6603 42.0121C27.7315 42.992 27.7875 44.5174 28.7906 45.4298L38.5906 54.3441C39.5645 55.23 41.0821 55.2167 42.0395 54.3149L60.2395 37.1721C61.2256 36.2433 61.2553 34.7172 60.3086 33.7527C59.3506 32.7767 57.7568 32.7453 56.7591 33.6851L40.943 48.5825C40.5628 48.9406 39.9709 48.9458 39.5845 48.5943L32.208 41.8845C31.1931 40.9613 29.6002 41.0206 28.6603 42.0121ZM28.6603 42.0121L27.9453 41.3344" stroke="black" stroke-width="2" stroke-linecap="round" stroke-linejoin="round"/>
<path d="M24 35V28.7692C26.1 28.3077 29.6 26.6923 31 26" stroke="black" stroke-width="2" stroke-linecap="round"/>
<path d="M34.5 26C35.3284 26 36 25.3284 36 24.5C36 23.6716 35.3284 23 34.5 23C33.6716 23 33 23.6716 33 24.5C33 25.3284 33.6716 26 34.5 26Z" fill="black"/>
<path d="M47.5 70C48.3284 70 49 69.3284 49 68.5C49 67.6716 48.3284 67 47.5 67C46.6716 67 46 67.6716 46 68.5C46 69.3284 46.6716 70 47.5 70Z" fill="black"/>
<path d="M52 66C56 63 58 60.75 60 57" stroke="black" stroke-width="2" stroke-linecap="round"/>
</svg>