<svg xmlns="http://www.w3.org/2000/svg" width="26" height="26" viewBox="0 0 26 26" fill="none">
<g clip-path="url(#clip0_214_336)">
<mask id="mask0_214_336" style="mask-type:luminance" maskUnits="userSpaceOnUse" x="0" y="0" width="26" height="26">
<path d="M26 0H0V26H26V0Z" fill="white"/>
</mask>
<g mask="url(#mask0_214_336)">
<path d="M14.7502 1.62819L12.9497 11.2701L19.5016 11.2955L10.599 24.3719L12.3995 13.7632L5.84763 13.7378L14.7502 1.62819ZM14.7502 0C14.7335 0 14.7169 0 14.7002 0C14.6835 0 14.6585 0 14.6252 0C14.4918 0.0169602 14.3751 0.0508806 14.2751 0.101761C14.175 0.135682 14.0583 0.195043 13.925 0.279843C13.8083 0.364645 13.6999 0.466406 13.5999 0.585127C13.5832 0.602087 13.5665 0.619047 13.5499 0.636008C13.5499 0.652968 13.5415 0.669928 13.5248 0.686889L4.54726 12.7456C4.16382 13.2883 4.12214 13.8564 4.42223 14.4502C4.47224 14.5518 4.53059 14.6536 4.59728 14.7554C4.68063 14.8402 4.76399 14.925 4.84735 15.0098C4.94738 15.0777 5.04741 15.1369 5.14744 15.1879C5.26414 15.2387 5.38084 15.2811 5.49754 15.315C5.61424 15.3321 5.73093 15.3405 5.84763 15.3405L10.474 15.366L8.99855 24.092C8.93186 24.4651 8.99021 24.8128 9.17359 25.135C9.35698 25.4743 9.6154 25.7201 9.94882 25.8729C10.0489 25.9237 10.1489 25.9576 10.2489 25.9745C10.3656 25.9916 10.4823 26 10.599 26C11.0825 26 11.4909 25.7795 11.8244 25.3386L20.8019 12.2622C21.1854 11.7195 21.227 11.1513 20.927 10.5577C20.627 9.96412 20.1518 9.66732 19.5016 9.66732H14.8752L16.3257 2.00979C16.3423 1.94194 16.3507 1.88258 16.3507 1.8317C16.3673 1.76387 16.3757 1.69602 16.3757 1.62819C16.3757 1.47554 16.3507 1.33138 16.3007 1.19569C16.2673 1.06001 16.2173 0.932811 16.1506 0.81409C16.0839 0.695369 16.0006 0.585127 15.9005 0.483366C15.8172 0.381605 15.7172 0.296803 15.6005 0.228963C15.4838 0.161122 15.3587 0.110241 15.2253 0.0763209C15.092 0.0254404 14.9586 0 14.8252 0C14.8086 0 14.7919 0 14.7752 0C14.7752 0 14.7669 0 14.7502 0Z" fill="#B91A23"/>
</g>
</g>
<defs>
<clipPath id="clip0_214_336">
<rect width="26" height="26" fill="white"/>
</clipPath>
</defs>
</svg>