<svg xmlns="http://www.w3.org/2000/svg" width="26" height="26" viewBox="0 0 26 26" fill="none">
<g clip-path="url(#clip0_214_363)">
<mask id="mask0_214_363" style="mask-type:luminance" maskUnits="userSpaceOnUse" x="0" y="0" width="26" height="26">
<path d="M26 0H0V26H26V0Z" fill="white"/>
</mask>
<g mask="url(#mask0_214_363)">
<path d="M21.0479 5.64932C17.485 6.66494 16.8326 9.54527 17.0625 11.375C14.521 8.38743 14.625 4.95057 14.625 0C6.47321 3.07369 8.36877 11.934 8.125 14.625C6.07508 12.9464 5.68751 8.93747 5.68751 8.93747C3.52299 10.0514 2.4375 13.0252 2.4375 15.4375C2.4375 21.2712 7.16626 26 13 26C18.8338 26 23.5625 21.2712 23.5625 15.4375C23.5625 11.9706 21.017 10.3716 21.0479 5.64932ZM13.4063 24.375C8.24609 24.375 4.06254 20.0208 4.06254 15.1328C4.06254 13.997 4.0877 13.0764 4.87502 12.1875C4.7889 12.7018 6.01008 17.1072 9.99784 16.8764C9.82477 13.5297 8.91967 5.33079 13.1243 2.49679C12.7522 6.95255 13.8434 12.9382 18.7111 13.8125C18.4324 12.0258 18.4649 9.05287 19.717 8.50362C19.8511 11.2409 21.8758 12.9301 21.8758 15.561C21.8758 20.3247 17.2665 24.375 13.4063 24.375Z" fill="#B91A23"/>
</g>
</g>
<defs>
<clipPath id="clip0_214_363">
<rect width="26" height="26" fill="white"/>
</clipPath>
</defs>
</svg>