<svg xmlns="http://www.w3.org/2000/svg" width="26" height="26" viewBox="0 0 26 26" fill="none">
<path d="M12.6416 21.8387C12.6416 21.8235 12.6416 21.8159 12.6416 21.8159L10.4976 18.5188C10.4199 18.3966 10.3112 18.3204 10.1714 18.2898C10.0316 18.244 9.89169 18.2593 9.75188 18.3356L9.56546 18.4501C9.44113 18.5111 9.37123 18.618 9.35569 18.7706C9.35569 18.9233 9.39457 19.0607 9.47221 19.1828L10.8472 21.2892C10.8161 21.274 10.7773 21.2664 10.7306 21.2664C10.684 21.2511 10.6375 21.2434 10.5908 21.2434C10.5598 21.2282 10.5287 21.2129 10.4976 21.1976C9.68972 20.9992 8.92848 20.6939 8.21379 20.2818C7.51471 19.8697 6.88547 19.3736 6.32619 18.7936C5.76685 18.1982 5.29301 17.5419 4.90462 16.8245C3.786 14.7027 3.59958 12.5047 4.34534 10.2303C4.51623 9.68085 4.74147 9.16184 5.02114 8.67336C5.31629 8.16968 5.65033 7.70414 6.02324 7.27673C6.39609 6.84933 6.80776 6.46007 7.25832 6.10901C7.72442 5.7579 8.22159 5.44498 8.74979 5.17026C8.92068 5.07865 9.0372 4.9413 9.09936 4.75813C9.16152 4.57497 9.14598 4.39941 9.05274 4.23152C8.95956 4.04835 8.81969 3.9262 8.63327 3.86519C8.44684 3.80411 8.26815 3.81938 8.09727 3.91093C6.86993 4.53677 5.80573 5.36103 4.90462 6.38373C4.01905 7.39122 3.37433 8.5284 2.97039 9.79528C2.55092 11.0775 2.39552 12.3826 2.5043 13.7106C2.62856 15.0233 3.00141 16.275 3.62286 17.4656C4.29092 18.7325 5.19203 19.8163 6.32619 20.7168C7.46029 21.6022 8.72651 22.2203 10.1247 22.5714C10.1403 22.5867 10.1558 22.5943 10.1714 22.5943H10.218L8.33032 23.556C8.20605 23.617 8.12061 23.7162 8.07399 23.8537C8.04291 23.991 8.06619 24.1208 8.14389 24.2429L8.21379 24.426C8.38468 24.7008 8.60998 24.7695 8.88965 24.6321L12.362 22.8691L12.595 22.7546C12.7193 22.6783 12.7969 22.5714 12.828 22.434C12.8746 22.2967 12.8591 22.1669 12.7814 22.0448L12.6416 21.8387ZM22.3594 8.60468C21.6914 7.33775 20.7981 6.26164 19.6795 5.3763C18.5764 4.47575 17.3257 3.84992 15.9275 3.4988C15.7877 3.45306 15.5857 3.40725 15.3216 3.36144L17.1859 2.44557C17.3257 2.36928 17.4189 2.2624 17.4656 2.12505C17.5122 1.98769 17.5044 1.85794 17.4422 1.73579L17.3723 1.55262C17.3257 1.47634 17.2558 1.41527 17.1626 1.36946C17.0849 1.32365 16.9995 1.30078 16.9062 1.30078C16.813 1.30078 16.7198 1.31605 16.6266 1.34659L13.1543 3.1096L12.9212 3.22409C12.7814 3.30037 12.6959 3.40725 12.6649 3.54461C12.6338 3.68197 12.6571 3.81172 12.7348 3.93387L12.8513 4.16284C12.8669 4.16284 12.8746 4.16284 12.8746 4.16284L15.0186 7.4599C15.0963 7.58199 15.205 7.66593 15.3449 7.71174C15.4847 7.74228 15.6168 7.7194 15.741 7.64306L15.9275 7.52858C16.0518 7.4675 16.1217 7.36068 16.1372 7.208C16.1528 7.05537 16.1217 6.91801 16.044 6.79586L14.6691 4.68945C15.0108 4.7352 15.306 4.79628 15.5546 4.87262C15.8964 4.96417 16.2304 5.07105 16.5567 5.19314C16.8829 5.31529 17.1937 5.46025 17.4888 5.6282C17.7996 5.7961 18.0947 5.97926 18.3744 6.17769C18.6541 6.37613 18.9182 6.58983 19.1667 6.81879C19.4309 7.04776 19.6717 7.292 19.8892 7.55145C20.1222 7.81095 20.332 8.08573 20.5184 8.37571C20.7204 8.65049 20.9068 8.94053 21.0777 9.24579C22.1963 11.3675 22.3827 13.5655 21.637 15.8399C21.2797 16.9389 20.7281 17.9235 19.9824 18.7936C19.2366 19.6636 18.3433 20.3658 17.3024 20.9C17.1315 20.9916 17.015 21.129 16.9528 21.3121C16.8907 21.4953 16.9062 21.6785 16.9995 21.8617C17.1237 22.1211 17.3335 22.2509 17.6287 22.2509C17.753 22.2509 17.8695 22.2203 17.9782 22.1593C19.1901 21.5487 20.231 20.7398 21.101 19.7323C21.971 18.7096 22.608 17.5571 23.012 16.275C23.8509 13.7258 23.6722 11.2454 22.476 8.83365C22.4294 8.7421 22.3905 8.66576 22.3594 8.60468Z" fill="#B91A23" stroke="#B91A23" stroke-width="0.3"/>
</svg>