<svg xmlns="http://www.w3.org/2000/svg" width="26" height="26" viewBox="0 0 26 26" fill="none">
<path d="M9.94834 22.1583C9.78173 22.7919 9.42232 23.0793 8.81114 23.0793C6.82221 23.0821 4.83422 23.0793 2.84529 23.0802C2.43066 23.0802 2.06657 22.9407 1.73898 22.6965C1.46848 22.4962 1.3571 22.2172 1.3543 21.8822C1.33745 20.043 1.30563 18.2038 1.30095 16.3646C1.29814 15.2855 1.33183 14.2054 1.35804 13.1253C1.37863 12.2632 2.104 11.5622 2.95854 11.5631C5.07944 11.565 7.20127 11.5641 9.32217 11.5734C9.50562 11.5734 9.63104 11.522 9.73119 11.3731C10.2591 10.5888 10.7888 9.80727 11.3167 9.02387C11.5133 8.73185 11.6836 8.4183 11.9073 8.15061C12.5279 7.40839 12.5999 6.56509 12.4605 5.65252C12.3706 5.06754 12.3285 4.47414 12.2948 3.88261C12.2742 3.5363 12.4408 3.25832 12.7113 3.03181C13.5649 2.31486 14.7723 2.30457 15.7607 3.03181C16.8773 3.85359 17.437 5.00202 17.627 6.34701C17.7927 7.52071 17.6251 8.67101 17.3247 9.80634C17.305 9.88215 17.2854 9.95796 17.2667 10.0338C17.2638 10.0488 17.2667 10.0647 17.2667 10.1105C17.349 10.1105 17.4304 10.1105 17.5119 10.1105C19.1966 10.1096 20.8814 10.1096 22.5652 10.1087C23.635 10.1077 24.5007 10.7825 24.6711 11.7747C24.7928 12.4766 24.5241 13.0654 24.0646 13.5745C23.9532 13.6981 23.9298 13.7936 23.97 13.9611C24.1844 14.8512 23.941 15.6486 23.4197 16.3703C23.3036 16.5303 23.2531 16.6614 23.2784 16.8729C23.3869 17.7798 23.1623 18.6072 22.612 19.3448C22.5427 19.4374 22.494 19.5872 22.5118 19.6995C22.7683 21.3028 21.6442 22.294 20.3404 22.4072C19.4961 22.4812 18.6425 22.4503 17.7927 22.4522C15.5782 22.4569 13.3637 22.4503 11.1492 22.4559C10.728 22.4569 10.3283 22.4035 9.94834 22.1583ZM22.5258 16.8673C22.4182 16.8673 22.3265 16.8673 22.2348 16.8673C21.0648 16.8682 19.8948 16.8691 18.7249 16.8682C18.5845 16.8682 18.4413 16.8785 18.3046 16.8532C18.1072 16.8158 17.9873 16.6866 17.9986 16.4732C18.0098 16.2636 18.1296 16.1447 18.3365 16.1213C18.4216 16.111 18.5077 16.1138 18.5939 16.1138C19.8883 16.1147 21.1827 16.1166 22.4781 16.1119C22.5623 16.1119 22.6793 16.0885 22.7261 16.0314C23.1632 15.4933 23.3907 14.8905 23.2568 14.182C23.2213 13.9938 23.1342 13.9339 22.9414 13.9358C21.7087 13.9442 20.4761 13.9405 19.2434 13.9396C18.8503 13.9396 18.6584 13.8113 18.6659 13.5539C18.6734 13.3059 18.855 13.1889 19.2406 13.1889C20.551 13.187 21.8613 13.188 23.1717 13.1842C23.2625 13.1842 23.371 13.1833 23.4403 13.1374C23.9766 12.7762 24.1058 11.8786 23.6977 11.375C23.3944 11.0016 22.992 10.8593 22.5202 10.8602C20.7185 10.8649 18.9168 10.863 17.115 10.864C16.3925 10.864 16.311 10.7629 16.4889 10.0675C16.7594 9.01264 17.0046 7.95406 16.9278 6.85149C16.8558 5.8238 16.5469 4.8869 15.8477 4.11286C15.3657 3.57935 14.7948 3.20216 14.0338 3.24989C13.3365 3.29482 12.9818 3.6795 13.0398 4.36369C13.0885 4.93183 13.1737 5.49715 13.2486 6.06247C13.3571 6.8908 13.1793 7.64519 12.6917 8.32751C12.4605 8.65135 12.2377 8.98269 12.0215 9.31776C11.3879 10.3033 10.7973 11.3189 10.012 12.1977C9.95676 12.2586 9.93149 12.3662 9.93149 12.4523C9.92681 15.3098 9.92681 18.1673 9.92962 21.0248C9.92962 21.0978 9.93991 21.1961 9.98577 21.241C10.2422 21.4881 10.5286 21.6978 10.9049 21.6978C13.9159 21.7006 16.926 21.7015 19.937 21.6978C20.39 21.6968 20.8177 21.5855 21.1968 21.3253C21.719 20.9659 21.9484 20.2424 21.7059 19.7042C20.7222 19.7042 19.732 19.7051 18.7417 19.7042C18.3524 19.7042 17.9621 19.7098 17.5718 19.6995C17.3593 19.6929 17.2086 19.5376 17.2114 19.3429C17.2133 19.136 17.3256 19.0069 17.5287 18.9676C17.6036 18.9526 17.6832 18.9526 17.7608 18.9526C19.0871 18.9517 20.4124 18.9535 21.7387 18.9479C21.837 18.947 21.9755 18.9208 22.027 18.8534C22.4697 18.275 22.6241 17.617 22.5258 16.8673ZM9.16306 12.3203C9.04794 12.3203 8.94872 12.3203 8.84951 12.3203C6.89989 12.3185 4.95121 12.3166 3.0016 12.3147C2.5046 12.3147 2.10681 12.69 2.10588 13.188C2.10026 16.0277 2.09932 18.8684 2.10026 21.7081C2.1012 22.0684 2.16297 22.1499 2.50741 22.265C2.62253 22.3043 2.75076 22.3211 2.87337 22.3239C3.25524 22.3314 3.63712 22.3268 4.01899 22.3277C5.61762 22.3277 7.21532 22.3286 8.81395 22.3277C9.10129 22.3277 9.17523 22.2519 9.17616 21.9673C9.1771 21.6622 9.17616 21.3571 9.17616 21.052C9.17616 18.2356 9.17616 15.4184 9.17616 12.6011C9.17616 12.5169 9.16868 12.4327 9.16306 12.3203Z" fill="#B91A23" stroke="#B91A23" stroke-width="0.5"/>
</svg>