<svg xmlns="http://www.w3.org/2000/svg" width="26" height="26" viewBox="0 0 26 26" fill="none">
<g clip-path="url(#clip0_214_349)">
<mask id="mask0_214_349" style="mask-type:luminance" maskUnits="userSpaceOnUse" x="0" y="0" width="26" height="26">
<path d="M26 0H0V26H26V0Z" fill="white"/>
</mask>
<g mask="url(#mask0_214_349)">
<path d="M22.8996 3.63796C22.7496 3.50228 22.5746 3.40053 22.3746 3.33268C22.1913 3.24788 21.9996 3.20548 21.7996 3.20548C21.7829 3.20548 21.7663 3.20548 21.7497 3.20548C21.7329 3.20548 21.7162 3.20548 21.6996 3.20548C21.6996 3.20548 21.6913 3.21396 21.6746 3.23092C21.658 3.23092 21.6329 3.23092 21.5996 3.23092C21.583 3.23092 21.5579 3.23092 21.5246 3.23092C21.508 3.23092 21.4746 3.23092 21.4246 3.23092C21.3912 3.23092 21.3496 3.23092 21.2996 3.23092C21.2663 3.23092 21.2246 3.23092 21.1747 3.23092C21.1246 3.23092 21.0746 3.23092 21.0246 3.23092C19.8246 3.23092 18.758 3.1122 17.8246 2.87476C17.3412 2.75604 16.8246 2.51859 16.2746 2.16243C15.7247 1.80626 15.1913 1.41618 14.6746 0.992172C14.1746 0.551206 13.8996 0.313764 13.8496 0.279843C13.5829 0.0932811 13.2913 0 12.9746 0C12.8079 0 12.6496 0.0254404 12.4996 0.0763209C12.3496 0.110241 12.2079 0.178082 12.0746 0.279843C12.0746 0.279843 12.0329 0.322244 11.9496 0.407046C11.8663 0.491846 11.7496 0.602087 11.5996 0.73777C11.4663 0.856491 11.3079 1.00065 11.1246 1.17025C10.9413 1.33986 10.7329 1.50946 10.4996 1.67907C10.2663 1.84867 10.0246 2.00979 9.77461 2.16243C9.54127 2.31507 9.28295 2.45924 8.99961 2.59492C8.73294 2.71363 8.46628 2.80691 8.19961 2.87476C7.26627 3.1122 6.19128 3.23092 4.97461 3.23092C4.90794 3.23092 4.83294 3.23092 4.74961 3.23092C4.68294 3.23092 4.62461 3.23092 4.57461 3.23092C4.52461 3.23092 4.47461 3.23092 4.42461 3.23092C4.39128 3.23092 4.36627 3.23092 4.3496 3.23092C4.33294 3.21396 4.31627 3.20548 4.29961 3.20548C4.28294 3.20548 4.26627 3.20548 4.24961 3.20548C4.23294 3.20548 4.21628 3.20548 4.19961 3.20548C3.99961 3.20548 3.79961 3.24788 3.59961 3.33268C3.41628 3.40053 3.24961 3.51077 3.09961 3.6634C2.76628 3.98564 2.59961 4.37574 2.59961 4.83366V8.90412C2.59961 10.9563 2.78294 12.8474 3.14961 14.5773C3.51628 16.3072 3.96627 17.7403 4.49961 18.8767C5.04962 19.9961 5.69962 21.0137 6.44961 21.9296C7.19961 22.8284 7.89127 23.5153 8.52461 23.9902C9.15794 24.4482 9.81627 24.8468 10.4996 25.1859C11.1996 25.5251 11.6913 25.7287 11.9746 25.7964C12.2579 25.8813 12.4913 25.9406 12.6746 25.9745C12.7246 25.9916 12.7746 26 12.8246 26C12.8746 26 12.9246 26 12.9746 26C13.0579 26 13.1496 25.9916 13.2496 25.9745C13.3663 25.9576 13.5163 25.9237 13.6996 25.8729C13.8829 25.8219 14.2079 25.7032 14.6746 25.5167C15.1579 25.3301 15.6246 25.1096 16.0746 24.8552C16.5246 24.6177 17.0496 24.2616 17.6496 23.7868C18.2497 23.3119 18.7996 22.786 19.2997 22.2093C19.8163 21.6158 20.3329 20.878 20.8497 19.9961C21.3663 19.1142 21.8079 18.1559 22.1746 17.1214C22.5412 16.0867 22.8329 14.8656 23.0497 13.458C23.283 12.0333 23.3996 10.5153 23.3996 8.90412V4.83366C23.3996 4.35877 23.233 3.9602 22.8996 3.63796ZM21.7996 8.90412C21.7996 14.9588 20.1997 19.3941 16.9996 22.2093C15.6497 23.3627 14.3079 24.0835 12.9746 24.3719C12.8413 24.3549 12.6663 24.3209 12.4496 24.2701C12.2496 24.2022 11.8413 24.0241 11.2246 23.7358C10.6246 23.4306 10.0496 23.0744 9.49961 22.6673C8.94962 22.2433 8.33295 21.6243 7.64962 20.8101C6.98294 19.9961 6.40795 19.0802 5.92461 18.0626C5.44128 17.0281 5.03294 15.7221 4.6996 14.1448C4.36627 12.5506 4.19961 10.8037 4.19961 8.90412V4.83366C4.21628 4.83366 4.23294 4.84214 4.24961 4.8591C4.28294 4.8591 4.31627 4.8591 4.3496 4.8591C4.38294 4.8591 4.42461 4.8591 4.47461 4.8591C4.52461 4.8591 4.57461 4.8591 4.62461 4.8591C4.6746 4.8591 4.72462 4.8591 4.77461 4.8591C4.84128 4.8591 4.90794 4.8591 4.97461 4.8591C6.30794 4.8591 7.51627 4.72342 8.5996 4.45206C9.2496 4.29941 9.93295 3.98564 10.6496 3.51077C11.3829 3.03588 11.9579 2.60339 12.3746 2.2133L12.9746 1.62819C13.1413 1.79778 13.3663 2.01826 13.6496 2.28963C13.9496 2.54404 14.4913 2.93411 15.2746 3.45989C16.058 3.96869 16.7746 4.29941 17.4246 4.45206C18.508 4.72342 19.708 4.8591 21.0246 4.8591C21.1579 4.8591 21.2913 4.8591 21.4246 4.8591C21.5579 4.8591 21.658 4.85063 21.7246 4.83366H21.7996C21.7996 5.18982 21.7996 6.54664 21.7996 8.90412Z" fill="#B91A23"/>
</g>
</g>
<defs>
<clipPath id="clip0_214_349">
<rect width="26" height="26" fill="white"/>
</clipPath>
</defs>
</svg>