<svg xmlns="http://www.w3.org/2000/svg" width="25" height="25" viewBox="0 0 35 35" fill="none"><path d="M10.7999 5.8C8.19993 6.1 7.99993 6.4 7.99993 10.9C7.99993 16.1 6.49993 21.6 4.39993 24.1C2.39993 26.3 2.69993 27 5.49993 27C7.09993 27 7.99993 27.6 7.99993 28.5C7.99993 29.7 9.99993 30 19.9999 30H31.9999V18C31.9999 6.2 31.9999 6 29.7999 5.9C16.1999 5.6 13.0999 5.5 10.7999 5.8ZM30.7999 9.8C30.4999 11.2 28.7999 11.5 20.1999 11.8C10.7999 12 9.99993 11.9 9.99993 10.2C9.99993 8.5 10.9999 8.4 20.5999 8.3C29.8999 8.2 31.0999 8.4 30.7999 9.8ZM30.2999 16.2C29.9999 18 29.0999 20.7 28.2999 22.2C26.9999 25 26.8999 25 16.5999 25H6.19993L7.79993 20.2C8.59993 17.6 9.49993 14.9 9.59993 14.2C9.89993 13.3 12.8999 13 20.3999 13H30.9999L30.2999 16.2ZM30.9999 25.5V29H20.4999C14.1999 29 9.99993 28.6 9.99993 28C9.99993 27.4 13.4999 27 18.4999 27C26.3999 27 27.0999 26.8 28.5999 24.5C30.6999 21.2 30.9999 21.3 30.9999 25.5Z" fill="#D41E28"/></svg>